<svg xmlns="http://www.w3.org/2000/svg" viewBox="0 0 64 64" role="img" aria-label="R&amp;D flywheel">
  <rect width="64" height="64" rx="14" fill="#0f766e"/>
  <circle cx="32" cy="32" r="8" fill="#f8fafc"/>
  <path d="M33 10a22 22 0 0 1 19 12l-7 4a14 14 0 0 0-12-8z" fill="#f59e0b"/>
  <path d="M53 25a22 22 0 0 1-3 22l-7-4a14 14 0 0 0 2-14z" fill="#f8fafc"/>
  <path d="M47 50a22 22 0 0 1-22 3l4-7a14 14 0 0 0 14-2z" fill="#7dd3fc"/>
  <path d="M22 52A22 22 0 0 1 10 33h8a14 14 0 0 0 8 12z" fill="#f8fafc"/>
  <path d="M10 30a22 22 0 0 1 12-19l4 7a14 14 0 0 0-8 12z" fill="#7dd3fc"/>
</svg>
